<svg width="1440" height="1585" viewBox="0 0 1440 1585" fill="none" xmlns="http://www.w3.org/2000/svg">
<defs>

<linearGradient id="txtgrad" x1="0" y1="0" x2="1" y2="0">
  <stop offset="0" stop-color="#60a5fa"/><stop offset="1" stop-color="#1d67cd"/>
</linearGradient>
<linearGradient id="ctagrad" x1="0" y1="0" x2="1" y2="1">
  <stop offset="0" stop-color="#004fa8"/><stop offset="1" stop-color="#1d67cd"/>
</linearGradient>
<linearGradient id="btngray" x1="0" y1="0" x2="0" y2="1">
  <stop offset="0" stop-color="#4a5568"/><stop offset="1" stop-color="#2d3748"/>
</linearGradient>
<pattern id="techgrid" width="60" height="60" patternUnits="userSpaceOnUse">
  <path d="M60 0H0V60" fill="none" stroke="rgba(59,130,246,0.06)" stroke-width="1"/>
</pattern>
<radialGradient id="heroglow" cx="0.2" cy="0.6" r="0.7">
  <stop offset="0" stop-color="rgba(37,99,235,0.18)"/><stop offset="1" stop-color="rgba(37,99,235,0)"/>
</radialGradient>
</defs>
<g id="Contact">
<rect width="1440" height="1585" fill="#ffffff"/>
<g id="Header"><rect x="0" y="0" width="1440" height="73" fill="#ffffff"/><line x1="0" y1="73" x2="1440" y2="73" stroke="#e2e8f0"/><g><path d="M13 2L3 14h7l-1 8 10-12h-7l1-8z" transform="translate(144,22) scale(1.35)" fill="#004fa8"/><text x="188" y="48" font-family="Space Grotesk" font-size="24" font-weight="700" fill="#0f172a" letter-spacing="0.5">VOLTWORKS</text>
</g>
<text x="470" y="42" font-family="Space Grotesk" font-size="14" font-weight="500" fill="#475569" letter-spacing="0.2">HOME</text>
<text x="553.52" y="42" font-family="Space Grotesk" font-size="14" font-weight="500" fill="#475569" letter-spacing="0.2">PRODUCTS</text>
<text x="672.56" y="42" font-family="Space Grotesk" font-size="14" font-weight="500" fill="#475569" letter-spacing="0.2">ABOUT</text>
<text x="764.9599999999999" y="42" font-family="Space Grotesk" font-size="14" font-weight="500" fill="#475569" letter-spacing="0.2">BLOGS</text>
<text x="857.3599999999999" y="42" font-family="Space Grotesk" font-size="14" font-weight="500" fill="#475569" letter-spacing="0.2">CAREERS</text>
<text x="967.5199999999999" y="42" font-family="Space Grotesk" font-size="14" font-weight="500" fill="#004fa8" letter-spacing="0.2">CONTACT US</text>
<rect x="967.5199999999999" y="50" width="88.8" height="2" fill="#004fa8"/><g><rect x="1136" y="17" width="160" height="40" rx="0" fill="#004fa8"/><text x="1216" y="41.32" font-family="Inter" font-size="12" font-weight="700" fill="#fff" letter-spacing="2" text-anchor="middle">REQUEST QUOTE</text>
</g>
</g>
<g id="Contact Info"><text x="200" y="169" font-family="Space Grotesk" font-size="36" font-weight="400" fill="#333333">Contact Us</text>
<rect x="200" y="183" width="64" height="6" fill="#0066cc"/><circle cx="220" cy="249" r="20" fill="none" stroke="#0066cc" stroke-width="2"/><text x="220" y="254" font-family="Inter" font-size="17" font-weight="400" fill="#0066cc" text-anchor="middle">✆</text>
<text x="252" y="254" font-family="Inter" font-size="15" font-weight="400" fill="#333333">(+91) 78400 14902</text>
<circle cx="460" cy="249" r="20" fill="#0066cc"/><text x="460" y="254" font-family="Inter" font-size="15" font-weight="400" fill="#fff" text-anchor="middle">✉</text>
<text x="492" y="254" font-family="Inter" font-size="15" font-weight="400" fill="#333333">info@voltworks.in</text>
<text x="200" y="329" font-family="Space Grotesk" font-size="22" font-weight="700" fill="#333333">Corporate Office</text>
<text x="200" y="365" font-family="Inter" font-size="15" font-weight="400" fill="#333333">Plot No.1, Ecotech - II</text>
<text x="200" y="392" font-family="Inter" font-size="15" font-weight="400" fill="#333333">Knowledge Park - III</text>
<text x="200" y="419" font-family="Inter" font-size="15" font-weight="400" fill="#333333">Greater Noida, GB Nagar</text>
<text x="200" y="446" font-family="Inter" font-size="15" font-weight="400" fill="#333333">Uttar Pradesh - 201306</text>
<text x="440" y="329" font-family="Space Grotesk" font-size="22" font-weight="700" fill="#333333">Manufacturing Unit</text>
<text x="440" y="365" font-family="Inter" font-size="15" font-weight="400" fill="#333333">Plot No. 63, Ecotech - II</text>
<text x="440" y="392" font-family="Inter" font-size="15" font-weight="400" fill="#333333">Udyog Vihar Extension</text>
<text x="440" y="419" font-family="Inter" font-size="15" font-weight="400" fill="#333333">Greater Noida, GB Nagar</text>
<text x="440" y="446" font-family="Inter" font-size="15" font-weight="400" fill="#333333">Uttar Pradesh - 201306</text>
</g>
<g id="Demo Form"><text x="720" y="169" font-family="Space Grotesk" font-size="36" font-weight="400" fill="#333333">Get in Touch for Demo</text>
<rect x="720" y="183" width="64" height="6" fill="#0066cc"/><text x="720" y="239" font-family="Inter" font-size="15" font-weight="400" fill="#333333">First Name *</text>
<rect x="720" y="251" width="240" height="40" fill="none" stroke="#94a3b8"/><text x="1020" y="239" font-family="Inter" font-size="15" font-weight="400" fill="#333333">Last Name</text>
<rect x="1020" y="251" width="240" height="40" fill="none" stroke="#94a3b8"/><text x="720" y="331" font-family="Inter" font-size="15" font-weight="400" fill="#333333">Company</text>
<rect x="720" y="343" width="240" height="40" fill="none" stroke="#94a3b8"/><text x="1020" y="331" font-family="Inter" font-size="15" font-weight="400" fill="#333333">Phone</text>
<rect x="1020" y="343" width="240" height="40" fill="none" stroke="#94a3b8"/><text x="720" y="423" font-family="Inter" font-size="15" font-weight="400" fill="#333333">Email *</text>
<rect x="720" y="435" width="240" height="40" fill="none" stroke="#94a3b8"/><text x="1020" y="423" font-family="Inter" font-size="15" font-weight="400" fill="#333333">Subject *</text>
<rect x="1020" y="435" width="240" height="40" fill="none" stroke="#94a3b8"/><text x="720" y="515" font-family="Inter" font-size="15" font-weight="400" fill="#333333">Leave us a message...</text>
<rect x="720" y="527" width="540" height="110" fill="none" stroke="#94a3b8"/><text x="736" y="555" font-family="Inter" font-size="13" font-weight="400" fill="rgba(51,51,51,0.75)">I would like to get the technical details for 2 Wheeler L2 Powertrain</text>
<g><rect x="720" y="665" width="140" height="48" rx="6" fill="url(#btngray)"/><text x="790" y="694.4" font-family="Inter" font-size="15" font-weight="500" fill="#fff" text-anchor="middle">Submit</text>
</g>
</g>
<g id="Mailing List"><text x="200" y="775" font-family="Space Grotesk" font-size="36" font-weight="400" fill="#333333">Join the Mailing List</text>
<rect x="200" y="789" width="64" height="6" fill="#0066cc"/><text x="200" y="841" font-family="Inter" font-size="15" font-weight="400" fill="#333333">Enter your email here *</text>
<rect x="200" y="853" width="400" height="40" fill="none" stroke="#94a3b8"/><g><rect x="200" y="915" width="150" height="48" rx="6" fill="url(#btngray)"/><text x="275" y="944.4" font-family="Inter" font-size="15" font-weight="500" fill="#fff" text-anchor="middle">Subscribe</text>
</g>
</g>
<g id="Footer"><rect x="0" y="1015" width="1440" height="570" fill="#ffffff"/><line x1="0" y1="1015" x2="1440" y2="1015" stroke="#e2e8f0"/><g><path d="M13 2L3 14h7l-1 8 10-12h-7l1-8z" transform="translate(176,1071) scale(1.35)" fill="#004fa8"/><text x="220" y="1097" font-family="Space Grotesk" font-size="24" font-weight="700" fill="#0f172a" letter-spacing="0.5">VOLTWORKS</text>
</g>
<text x="176" y="1165" font-family="Space Grotesk" font-size="20" font-weight="700" fill="#0f172a">Products</text>
<rect x="176" y="1177" width="48" height="4" fill="#004fa8"/><text x="176" y="1217" font-family="Work Sans" font-size="15" font-weight="400" fill="#475569">Electric Motors</text>
<text x="176" y="1251" font-family="Work Sans" font-size="15" font-weight="400" fill="#475569">Motor Controller</text>
<text x="456" y="1165" font-family="Space Grotesk" font-size="20" font-weight="700" fill="#0f172a">Company</text>
<rect x="456" y="1177" width="48" height="4" fill="#004fa8"/><text x="456" y="1217" font-family="Work Sans" font-size="15" font-weight="400" fill="#475569">About Us</text>
<text x="456" y="1251" font-family="Work Sans" font-size="15" font-weight="400" fill="#475569">Blogs</text>
<text x="456" y="1285" font-family="Work Sans" font-size="15" font-weight="400" fill="#475569">Careers</text>
<text x="456" y="1319" font-family="Work Sans" font-size="15" font-weight="400" fill="#475569">Grievance Redressal</text>
<text x="756" y="1165" font-family="Space Grotesk" font-size="20" font-weight="700" fill="#0f172a">Ready to Get Started?</text>
<rect x="756" y="1177" width="48" height="4" fill="#004fa8"/><text x="756" y="1213" font-family="Work Sans" font-size="15" font-weight="400" fill="#475569">Connect to learn more about the tech</text>
<g><rect x="756" y="1231" width="130" height="44" rx="6" fill="#1e293b"/><text x="821" y="1258.04" font-family="Inter" font-size="14" font-weight="700" fill="#fff" text-anchor="middle">Contact</text>
</g>
<text x="756" y="1315" font-family="Space Grotesk" font-size="20" font-weight="700" fill="#0f172a">Get Connected</text>
<rect x="756" y="1327" width="48" height="4" fill="#004fa8"/><rect x="756" y="1347" width="40" height="40" rx="6" fill="#334155"/><text x="776" y="1372" font-family="Inter" font-size="16" font-weight="700" fill="#fff" text-anchor="middle">in</text>
<rect x="812" y="1347" width="40" height="40" rx="6" fill="#334155"/><text x="832" y="1372" font-family="Inter" font-size="16" font-weight="700" fill="#fff" text-anchor="middle">X</text>
<rect x="868" y="1347" width="40" height="40" rx="6" fill="#334155"/><text x="888" y="1372" font-family="Inter" font-size="16" font-weight="700" fill="#fff" text-anchor="middle">W</text>
<line x1="176" y1="1495" x2="1264" y2="1495" stroke="#e2e8f0"/><text x="720" y="1531" font-family="Work Sans" font-size="14" font-weight="400" fill="#64748b" text-anchor="middle">Copyright © 2024. All Rights Reserved.</text>
<text x="720" y="1555" font-family="Work Sans" font-size="14" font-weight="400" fill="#64748b" text-anchor="middle">VoltWorks Technologies Private Limited</text>
</g>

</g>
</svg>